<?xml version="1.0" standalone="no"?><!DOCTYPE svg PUBLIC "-//W3C//DTD SVG 1.1//EN" "http://www.w3.org/Graphics/SVG/1.1/DTD/svg11.dtd"><svg t="1587819719269" class="icon" viewBox="0 0 1024 1024" version="1.1" xmlns="http://www.w3.org/2000/svg" p-id="4043" width="128" height="128" xmlns:xlink="http://www.w3.org/1999/xlink"><defs><style type="text/css"></style></defs><path d="M814.506667 583.253333l-61.866667-347.733333-31.146667 80.64L426.666667 0l-12.373334 117.76-211.2 325.973333-61.866666-37.12v319.573334l164.266666 201.813333 204.8 96 214.186667-111.786667 158.293333-341.333333-68.266666 12.373333z m-133.546667 291.84l-167.68 87.04-179.626667-74.666666-108.8-130.133334-2.986666-251.733333 40.533333 40.533333 173.653333-248.32 9.386667-80.64 214.186667 220.16 24.746666-24.746666 58.88 238.933333 40.533334-2.986667-102.826667 226.56z" fill="#B3D3F5" p-id="4044"></path><path d="M395.52 809.813333c-5.546667 0-11.093333-2.56-14.506667-7.253333l-80.213333-101.12L384 590.506667c5.973333-8.106667 17.92-9.813333 26.026667-3.84 8.106667 6.4 9.813333 17.92 3.84 26.026666l-65.706667 87.893334 62.293333 78.506666a18.901333 18.901333 0 0 1-14.933333 30.72zM612.693333 809.813333c-4.266667 0-8.106667-1.28-11.52-4.266666a18.901333 18.901333 0 0 1-2.986666-26.453334l62.293333-78.506666-65.706667-87.893334a18.133333 18.133333 0 0 1 3.84-26.026666c8.106667-6.4 20.053333-4.693333 26.026667 3.84l83.2 110.933333-80.213333 101.12c-3.84 5.12-9.386667 7.253333-14.933334 7.253333zM479.573333 806.826667c-1.706667 0-3.413333-0.426667-5.12-0.853334a18.688 18.688 0 0 1-12.8-23.04l52.906667-186.026666a18.688 18.688 0 0 1 35.84 10.24l-52.906667 186.026666c-2.56 8.533333-9.813333 13.653333-17.92 13.653334z" fill="#B3D3F5" p-id="4045"></path></svg>